<svg xmlns="http://www.w3.org/2000/svg" width="24" height="24" viewBox="0 0 24 24" role="img" aria-labelledby="title description">
  <title id="title">GitHub repository</title>
  <desc id="description">A simplified white cat face inside a dark circle.</desc>
  <circle cx="12" cy="12" r="11" fill="#24292f"/>
  <path d="M6.4 10.2L7 5.8l3.2 2A9.2 9.2 0 0112 7.6c.6 0 1.2.1 1.8.2l3.2-2 .6 4.4c.8 1 1.2 2.2 1.2 3.5 0 3.5-3 5.6-6.8 5.6s-6.8-2.1-6.8-5.6c0-1.3.4-2.5 1.2-3.5z" fill="#ffffff"/>
  <circle cx="9.5" cy="13" r="1" fill="#24292f"/>
  <circle cx="14.5" cy="13" r="1" fill="#24292f"/>
  <path d="M11.2 15.2h1.6L12 16z" fill="#24292f"/>
  <path d="M7 15.2l3 .5M17 15.2l-3 .5" fill="none" stroke="#24292f" stroke-width=".7" stroke-linecap="round"/>
</svg>
